<svg width="48" height="48" viewBox="0 0 48 48" fill="none" xmlns="http://www.w3.org/2000/svg">
<path d="M12.05 44L14.65 38.05C14.0833 37.65 13.575 37.2583 13.125 36.875C12.675 36.4917 12.2167 36.0667 11.75 35.6C11.4833 35.7333 11.1917 35.8333 10.875 35.9C10.5583 35.9667 10.2667 36 9.99999 36C8.93333 36 8.02499 35.625 7.27499 34.875C6.52499 34.125 6.14999 33.2167 6.14999 32.15C6.14999 31.4833 6.30833 30.8583 6.62499 30.275C6.94166 29.6917 7.33333 29.2667 7.79999 29C7.56666 28.1667 7.38333 27.3333 7.24999 26.5C7.11666 25.6667 7.04999 24.8167 7.04999 23.95C7.04999 23.05 7.10833 22.1917 7.22499 21.375C7.34166 20.5583 7.53333 19.7333 7.79999 18.9C7.33333 18.5667 6.94166 18.125 6.62499 17.575C6.30833 17.025 6.14999 16.4167 6.14999 15.75C6.14999 14.6833 6.52499 13.775 7.27499 13.025C8.02499 12.275 8.93333 11.9 9.99999 11.9C10.2667 11.9 10.55 11.9333 10.85 12C11.15 12.0667 11.4333 12.1667 11.7 12.3C12.8667 11.1 14.1417 10.1 15.525 9.3C16.9083 8.5 18.45 7.88333 20.15 7.45C20.3167 6.38333 20.7583 5.54167 21.475 4.925C22.1917 4.30833 23.0333 4 24 4C24.9667 4 25.8167 4.31667 26.55 4.95C27.2833 5.58333 27.7167 6.41667 27.85 7.45C29.55 7.88333 31.15 8.45833 32.65 9.175C34.15 9.89167 35.4667 10.8833 36.6 12.15C36.8333 12.0833 37.0667 12.025 37.3 11.975C37.5333 11.925 37.7667 11.9 38 11.9C39.0667 11.9 39.975 12.275 40.725 13.025C41.475 13.775 41.85 14.6833 41.85 15.75C41.85 16.4833 41.6917 17.1167 41.375 17.65C41.0583 18.1833 40.6667 18.6 40.2 18.9C40.4667 19.7667 40.6583 20.6 40.775 21.4C40.8917 22.2 40.95 23.05 40.95 23.95C40.95 24.8167 40.8917 25.6583 40.775 26.475C40.6583 27.2917 40.4667 28.1167 40.2 28.95C40.7667 29.3167 41.1833 29.8 41.45 30.4C41.7167 31 41.85 31.5833 41.85 32.15C41.85 33.2167 41.475 34.125 40.725 34.875C39.975 35.625 39.0667 36 38 36C37.7333 36 37.4417 35.9667 37.125 35.9C36.8083 35.8333 36.5333 35.7333 36.3 35.6C35.8667 36.0667 35.4167 36.5 34.95 36.9C34.4833 37.3 33.9833 37.6833 33.45 38.05L36 44H33.15L31.05 39.4C30.4833 39.6 29.95 39.7833 29.45 39.95C28.95 40.1167 28.4167 40.2833 27.85 40.45C27.6833 41.55 27.2417 42.4 26.525 43C25.8083 43.6 24.9667 43.9 24 43.9C23.0333 43.9 22.1917 43.6 21.475 43C20.7583 42.4 20.3167 41.55 20.15 40.45C19.5833 40.2833 19.0417 40.1167 18.525 39.95C18.0083 39.7833 17.5167 39.5833 17.05 39.35L14.85 44H12.05ZM15.75 35.5L19.3 27.75C18.8333 27.2167 18.4833 26.6417 18.25 26.025C18.0167 25.4083 17.9 24.7333 17.9 24C17.9 22.3333 18.525 20.9 19.775 19.7C21.025 18.5 22.4833 17.9 24.15 17.9C25.8167 17.9 27.225 18.5 28.375 19.7C29.525 20.9 30.1 22.3333 30.1 24C30.1 24.7333 29.9917 25.4083 29.775 26.025C29.5583 26.6417 29.2 27.2167 28.7 27.75L32.25 35.5C32.6167 35.2333 32.9917 34.9417 33.375 34.625C33.7583 34.3083 34.1167 33.9667 34.45 33.6C34.3833 33.4 34.3167 33.175 34.25 32.925C34.1833 32.675 34.15 32.4167 34.15 32.15C34.15 31.0833 34.4417 30.1667 35.025 29.4C35.6083 28.6333 36.45 28.2833 37.55 28.35C37.7833 27.6833 37.9583 26.975 38.075 26.225C38.1917 25.475 38.25 24.7167 38.25 23.95C38.25 23.15 38.1917 22.3917 38.075 21.675C37.9583 20.9583 37.8 20.2667 37.6 19.6C36.6 19.4667 35.775 19.0333 35.125 18.3C34.475 17.5667 34.15 16.7167 34.15 15.75C34.15 15.45 34.175 15.1833 34.225 14.95C34.275 14.7167 34.35 14.4667 34.45 14.2C33.3833 13.1667 32.2667 12.3167 31.1 11.65C29.9333 10.9833 28.6167 10.45 27.15 10.05C26.8833 10.4833 26.475 10.8667 25.925 11.2C25.375 11.5333 24.7333 11.7 24 11.7C23.2667 11.7 22.6333 11.5333 22.1 11.2C21.5667 10.8667 21.15 10.4833 20.85 10.05C19.3833 10.45 18.0417 10.9833 16.825 11.65C15.6083 12.3167 14.5167 13.2 13.55 14.3C13.6833 14.5667 13.7667 14.8083 13.8 15.025C13.8333 15.2417 13.85 15.4833 13.85 15.75C13.85 16.8167 13.5083 17.6917 12.825 18.375C12.1417 19.0583 11.35 19.4667 10.45 19.6C10.2167 20.2667 10.0417 20.9583 9.92499 21.675C9.80833 22.3917 9.74999 23.15 9.74999 23.95C9.74999 24.7167 9.80833 25.4667 9.92499 26.2C10.0417 26.9333 10.2167 27.6333 10.45 28.3C11.5167 28.5 12.35 28.9667 12.95 29.7C13.55 30.4333 13.85 31.25 13.85 32.15C13.85 32.45 13.825 32.7167 13.775 32.95C13.725 33.1833 13.6667 33.3833 13.6 33.55C13.9333 33.9167 14.275 34.2583 14.625 34.575C14.975 34.8917 15.35 35.2 15.75 35.5ZM18 36.85C18.4 37.0167 18.8417 37.1917 19.325 37.375C19.8083 37.5583 20.3167 37.7167 20.85 37.85C21.2167 37.3833 21.65 36.9917 22.15 36.675C22.65 36.3583 23.2667 36.2 24 36.2C24.7333 36.2 25.375 36.3583 25.925 36.675C26.475 36.9917 26.8833 37.3833 27.15 37.85C27.7167 37.7167 28.225 37.5667 28.675 37.4C29.125 37.2333 29.5333 37.0667 29.9 36.9L26.65 29.35C26.25 29.6167 25.8167 29.8083 25.35 29.925C24.8833 30.0417 24.4167 30.1 23.95 30.1C23.4833 30.1 23.0167 30.0333 22.55 29.9C22.0833 29.7667 21.65 29.5667 21.25 29.3L18 36.85Z" fill="black"/>
</svg>
