<svg width="48" height="48" viewBox="0 0 48 48" fill="none" xmlns="http://www.w3.org/2000/svg">
<path d="M10 37.8V40.5C10 40.9333 9.85833 41.2917 9.575 41.575C9.29167 41.8583 8.93333 42 8.5 42H7.5C7.06667 42 6.70833 41.8583 6.425 41.575C6.14167 41.2917 6 40.9333 6 40.5V24.3L10.25 11.5C10.4167 11.0333 10.6917 10.6667 11.075 10.4C11.4583 10.1333 11.9 10 12.4 10H35.6C36.1 10 36.5417 10.1333 36.925 10.4C37.3083 10.6667 37.5833 11.0333 37.75 11.5L42 24.3V40.5C42 40.9333 41.8583 41.2917 41.575 41.575C41.2917 41.8583 40.9333 42 40.5 42H39.45C39.0167 42 38.6583 41.8583 38.375 41.575C38.0917 41.2917 37.95 40.9333 37.95 40.5V37.8H10ZM10.15 21.3H37.85L35.1 13H12.9L10.15 21.3ZM14.3 32.3C15.0667 32.3 15.7083 32.0333 16.225 31.5C16.7417 30.9667 17 30.3333 17 29.6C17 28.8333 16.7417 28.175 16.225 27.625C15.7083 27.075 15.0667 26.8 14.3 26.8C13.5333 26.8 12.875 27.075 12.325 27.625C11.775 28.175 11.5 28.8333 11.5 29.6C11.5 30.3667 11.775 31.0083 12.325 31.525C12.875 32.0417 13.5333 32.3 14.3 32.3ZM33.75 32.3C34.5167 32.3 35.175 32.0333 35.725 31.5C36.275 30.9667 36.55 30.3333 36.55 29.6C36.55 28.8333 36.275 28.175 35.725 27.625C35.175 27.075 34.5167 26.8 33.75 26.8C32.9833 26.8 32.3417 27.075 31.825 27.625C31.3083 28.175 31.05 28.8333 31.05 29.6C31.05 30.3667 31.3167 31.0083 31.85 31.525C32.3833 32.0417 33.0167 32.3 33.75 32.3Z" fill="black"/>
</svg>
