<svg width="187" height="32" viewBox="0 0 187 32" fill="none" xmlns="http://www.w3.org/2000/svg">
<g clip-path="url(#clip0_55_58)" filter="url(#filter0_b_55_58)">
<path d="M38.9585 1.41663H43.5279L48.1693 19.3549H48.2413L53.4224 1.41663H58.0278L63.0649 19.3549H63.1369L67.9222 1.41663H72.4916L65.4036 24.8743H60.8342L55.6891 6.93609H55.6171L50.3641 24.8743H45.7227L38.9585 1.41663Z" fill="#323232"/>
<path d="M88.6585 21.0962C88.6585 21.5561 88.7185 21.8847 88.8384 22.0818C88.9823 22.2789 89.2462 22.3775 89.6299 22.3775C89.7499 22.3775 89.8938 22.3775 90.0617 22.3775C90.2296 22.3775 90.4215 22.3556 90.6374 22.3118V24.9072C90.4935 24.9511 90.3016 24.9949 90.0617 25.0387C89.8458 25.1044 89.6179 25.1591 89.3781 25.2029C89.1382 25.2467 88.8984 25.2796 88.6585 25.3015C88.4186 25.3234 88.2147 25.3343 88.0468 25.3343C87.2073 25.3343 86.5117 25.181 85.96 24.8744C85.4083 24.5678 85.0485 24.0311 84.8806 23.2645C84.0651 23.9873 83.0576 24.513 81.8583 24.8415C80.683 25.1701 79.5436 25.3343 78.4402 25.3343C77.6007 25.3343 76.7972 25.2248 76.0297 25.0058C75.2621 24.8087 74.5785 24.513 73.9788 24.1188C73.4031 23.7026 72.9354 23.1879 72.5756 22.5746C72.2398 21.9394 72.0719 21.2057 72.0719 20.3734C72.0719 19.3221 72.2758 18.4679 72.6836 17.8108C73.1153 17.1537 73.667 16.639 74.3387 16.2667C75.0343 15.8943 75.8018 15.6315 76.6413 15.4782C77.5048 15.3029 78.3683 15.1715 79.2318 15.0839C79.9754 14.9525 80.683 14.8649 81.3546 14.8211C82.0262 14.7554 82.6139 14.6568 83.1176 14.5254C83.6453 14.394 84.0531 14.1969 84.3409 13.934C84.6527 13.6493 84.8087 13.2331 84.8087 12.6856C84.8087 12.2037 84.6767 11.8095 84.4129 11.5028C84.173 11.1962 83.8612 10.9662 83.4774 10.8129C83.1176 10.6377 82.7098 10.5282 82.2541 10.4844C81.7983 10.4187 81.3666 10.3858 80.9588 10.3858C79.8075 10.3858 78.86 10.6048 78.1164 11.0429C77.3728 11.4809 76.9531 12.1599 76.8571 13.0798H72.7556C72.8275 11.9847 73.1153 11.0757 73.619 10.353C74.1227 9.63017 74.7584 9.04975 75.526 8.6117C76.3175 8.17364 77.2049 7.86701 78.1884 7.69179C79.1718 7.51657 80.1793 7.42896 81.2107 7.42896C82.1222 7.42896 83.0217 7.51657 83.9092 7.69179C84.7967 7.86701 85.5882 8.15174 86.2838 8.54599C87.0034 8.94024 87.5791 9.45495 88.0109 10.0901C88.4426 10.7034 88.6585 11.459 88.6585 12.357V21.0962ZM84.5568 16.3652C83.9331 16.7376 83.1656 16.9675 82.2541 17.0552C81.3426 17.1209 80.4311 17.2304 79.5196 17.3837C79.0879 17.4494 78.6681 17.548 78.2603 17.6794C77.8526 17.7889 77.4928 17.9532 77.1809 18.1722C76.8691 18.3693 76.6173 18.6431 76.4254 18.9935C76.2575 19.3221 76.1736 19.7273 76.1736 20.2091C76.1736 20.6253 76.3055 20.9757 76.5693 21.2605C76.8331 21.5452 77.145 21.7752 77.5048 21.9504C77.8885 22.1037 78.2963 22.2132 78.7281 22.2789C79.1838 22.3446 79.5916 22.3775 79.9514 22.3775C80.4071 22.3775 80.8989 22.3227 81.4266 22.2132C81.9543 22.1037 82.446 21.9175 82.9017 21.6547C83.3815 21.3919 83.7772 21.0633 84.0891 20.6691C84.4009 20.2529 84.5568 19.7492 84.5568 19.1578V16.3652Z" fill="#323232"/>
<path d="M91.021 7.88892H95.5185L100.376 20.5705H100.448L105.161 7.88892H109.443L102.211 25.7943C101.875 26.5609 101.539 27.2946 101.203 27.9955C100.891 28.6964 100.496 29.3097 100.016 29.8353C99.5602 30.3829 98.9845 30.81 98.2889 31.1166C97.5933 31.4452 96.7058 31.6095 95.6264 31.6095C94.6669 31.6095 93.7195 31.5437 92.784 31.4123V28.2584C93.1198 28.3022 93.4436 28.346 93.7555 28.3898C94.0673 28.4555 94.3911 28.4883 94.7269 28.4883C95.2066 28.4883 95.6024 28.4336 95.9142 28.3241C96.2261 28.2145 96.4779 28.0503 96.6698 27.8313C96.8857 27.6341 97.0656 27.3932 97.2095 27.1085C97.3534 26.8237 97.4854 26.4952 97.6053 26.1228L98.073 24.8087L91.021 7.88892Z" fill="#323232"/>
<path d="M110.614 7.88885H113.672V6.47613C113.672 5.4029 113.816 4.53775 114.104 3.88067C114.392 3.20169 114.776 2.68698 115.255 2.33654C115.735 1.96419 116.275 1.72326 116.874 1.61375C117.498 1.48233 118.146 1.41663 118.817 1.41663C120.137 1.41663 121.096 1.49329 121.696 1.6466V4.5706C121.432 4.5049 121.144 4.46109 120.832 4.43919C120.544 4.39538 120.197 4.37348 119.789 4.37348C119.237 4.37348 118.757 4.49394 118.35 4.73487C117.966 4.9758 117.774 5.44671 117.774 6.14759V7.88885H121.264V10.6814H117.774V24.8743H113.672V10.6814H110.614V7.88885Z" fill="#323232"/>
<path d="M139.377 21.0962C139.377 21.5561 139.437 21.8847 139.557 22.0818C139.701 22.2789 139.965 22.3775 140.349 22.3775C140.469 22.3775 140.612 22.3775 140.78 22.3775C140.948 22.3775 141.14 22.3556 141.356 22.3118V24.9072C141.212 24.9511 141.021 24.9949 140.78 25.0387C140.564 25.1044 140.337 25.1591 140.097 25.2029C139.857 25.2467 139.617 25.2796 139.377 25.3015C139.138 25.3234 138.934 25.3343 138.766 25.3343C137.926 25.3343 137.23 25.181 136.679 24.8744C136.127 24.5678 135.767 24.0311 135.599 23.2645C134.784 23.9873 133.776 24.513 132.577 24.8415C131.402 25.1701 130.262 25.3343 129.159 25.3343C128.319 25.3343 127.516 25.2248 126.748 25.0058C125.981 24.8087 125.297 24.513 124.697 24.1188C124.122 23.7026 123.654 23.1879 123.294 22.5746C122.958 21.9394 122.79 21.2057 122.79 20.3734C122.79 19.3221 122.994 18.4679 123.402 17.8108C123.834 17.1537 124.386 16.639 125.057 16.2667C125.753 15.8943 126.52 15.6315 127.36 15.4782C128.223 15.3029 129.087 15.1715 129.95 15.0839C130.694 14.9525 131.402 14.8649 132.073 14.8211C132.745 14.7554 133.332 14.6568 133.836 14.5254C134.364 14.394 134.772 14.1969 135.06 13.934C135.372 13.6493 135.528 13.2331 135.528 12.6856C135.528 12.2037 135.396 11.8095 135.132 11.5028C134.892 11.1962 134.58 10.9662 134.196 10.8129C133.836 10.6377 133.428 10.5282 132.973 10.4844C132.517 10.4187 132.085 10.3858 131.677 10.3858C130.526 10.3858 129.579 10.6048 128.835 11.0429C128.091 11.4809 127.672 12.1599 127.576 13.0798H123.474C123.546 11.9847 123.834 11.0757 124.338 10.353C124.841 9.63017 125.477 9.04975 126.244 8.6117C127.036 8.17364 127.924 7.86701 128.907 7.69179C129.89 7.51657 130.898 7.42896 131.929 7.42896C132.841 7.42896 133.74 7.51657 134.628 7.69179C135.515 7.86701 136.307 8.15174 137.003 8.54599C137.722 8.94024 138.298 9.45495 138.73 10.0901C139.162 10.7034 139.377 11.459 139.377 12.357V21.0962ZM135.276 16.3652C134.652 16.7376 133.884 16.9675 132.973 17.0552C132.061 17.1209 131.15 17.2304 130.238 17.3837C129.806 17.4494 129.387 17.548 128.979 17.6794C128.571 17.7889 128.211 17.9532 127.9 18.1722C127.588 18.3693 127.336 18.6431 127.144 18.9935C126.976 19.3221 126.892 19.7273 126.892 20.2091C126.892 20.6253 127.024 20.9757 127.288 21.2605C127.552 21.5452 127.864 21.7752 128.223 21.9504C128.607 22.1037 129.015 22.2132 129.447 22.2789C129.902 22.3446 130.31 22.3775 130.67 22.3775C131.126 22.3775 131.618 22.3227 132.146 22.2132C132.673 22.1037 133.165 21.9175 133.62 21.6547C134.1 21.3919 134.496 21.0633 134.808 20.6691C135.12 20.2529 135.276 19.7492 135.276 19.1578V16.3652Z" fill="#323232"/>
<path d="M143.791 7.88891H147.64V11.1743H147.712C147.832 10.7143 148.06 10.2653 148.396 9.82729C148.756 9.38924 149.176 8.99499 149.655 8.64455C150.159 8.27221 150.711 7.97652 151.31 7.75749C151.91 7.53847 152.522 7.42896 153.145 7.42896C153.625 7.42896 153.949 7.43991 154.117 7.46181C154.309 7.48371 154.501 7.50561 154.692 7.52752V11.1414C154.405 11.0976 154.105 11.0648 153.793 11.0429C153.505 10.9991 153.217 10.9772 152.929 10.9772C152.234 10.9772 151.574 11.1086 150.95 11.3714C150.351 11.6124 149.823 11.9847 149.367 12.4885C148.912 12.9703 148.552 13.5726 148.288 14.2954C148.024 15.0182 147.892 15.8505 147.892 16.7923V24.8744H143.791V7.88891Z" fill="#323232"/>
<path d="M168.58 14.8868C168.532 14.2954 168.388 13.726 168.149 13.1784C167.933 12.6308 167.621 12.1599 167.213 11.7657C166.829 11.3495 166.35 11.021 165.774 10.7801C165.222 10.5172 164.599 10.3858 163.903 10.3858C163.183 10.3858 162.524 10.5063 161.924 10.7472C161.348 10.9662 160.845 11.2838 160.413 11.7C160.005 12.0942 159.669 12.5651 159.405 13.1127C159.166 13.6602 159.034 14.2516 159.01 14.8868H168.58ZM159.01 17.3508C159.01 18.0079 159.106 18.6431 159.298 19.2564C159.513 19.8696 159.825 20.4063 160.233 20.8662C160.641 21.3262 161.157 21.6985 161.78 21.9832C162.404 22.2461 163.147 22.3775 164.011 22.3775C165.21 22.3775 166.17 22.1475 166.889 21.6876C167.633 21.2057 168.185 20.4939 168.544 19.5521H172.43C172.214 20.472 171.842 21.2933 171.315 22.0161C170.787 22.7389 170.151 23.3522 169.408 23.8559C168.664 24.3378 167.825 24.6992 166.889 24.9401C165.978 25.2029 165.018 25.3343 164.011 25.3343C162.548 25.3343 161.252 25.1153 160.125 24.6773C158.998 24.2392 158.038 23.6259 157.247 22.8374C156.479 22.049 155.891 21.1071 155.484 20.012C155.1 18.9169 154.908 17.7122 154.908 16.3981C154.908 15.1934 155.112 14.0545 155.52 12.9813C155.951 11.8861 156.551 10.9334 157.319 10.123C158.11 9.29068 159.058 8.6336 160.161 8.15174C161.264 7.66988 162.512 7.42896 163.903 7.42896C165.366 7.42896 166.673 7.71369 167.825 8.28316C169 8.83072 169.972 9.56446 170.739 10.4844C171.507 11.4043 172.058 12.4666 172.394 13.6712C172.754 14.8539 172.85 16.0805 172.682 17.3508H159.01Z" fill="#323232"/>
<path d="M175.8 7.88891H179.65V11.1743H179.722C179.842 10.7143 180.07 10.2653 180.406 9.82729C180.765 9.38924 181.185 8.99499 181.664 8.64455C182.168 8.27221 182.72 7.97652 183.32 7.75749C183.92 7.53847 184.531 7.42896 185.155 7.42896C185.635 7.42896 185.958 7.43991 186.126 7.46181C186.318 7.48371 186.51 7.50561 186.702 7.52752V11.1414C186.414 11.0976 186.114 11.0648 185.803 11.0429C185.515 10.9991 185.227 10.9772 184.939 10.9772C184.243 10.9772 183.584 11.1086 182.96 11.3714C182.36 11.6124 181.833 11.9847 181.377 12.4885C180.921 12.9703 180.561 13.5726 180.298 14.2954C180.034 15.0182 179.902 15.8505 179.902 16.7923V24.8744H175.8V7.88891Z" fill="#323232"/>
</g>
<g clip-path="url(#clip1_55_58)">
<path fill-rule="evenodd" clip-rule="evenodd" d="M13.4583 0C20.8912 0 26.9167 5.86694 26.9167 13.1042C26.9167 20.3411 20.8916 26.2079 13.4591 26.2083C13.4588 26.2083 13.4586 26.2083 13.4583 26.2083C6.0255 26.2083 0 20.3414 0 13.1042C0 5.86694 6.0255 0 13.4583 0ZM7.85785 22.0594C6.73751 20.0157 5.99607 17.3584 5.82497 14.4146H8.52141C8.69812 17.1064 9.40838 19.4256 10.3724 21.0724C10.9662 22.0867 11.5681 22.7213 12.1125 23.0993V14.4146H14.8042V23.0993C15.3486 22.7213 15.9505 22.0867 16.5443 21.0724C17.5083 19.4256 18.2185 17.1064 18.3953 14.4146H21.0917C20.9206 17.3584 20.1792 20.0157 19.0588 22.0594C22.1569 20.2186 24.225 16.8965 24.225 13.1042C24.225 9.31182 22.1569 5.98974 19.0588 4.14897C20.1792 6.19264 20.9206 8.8499 21.0917 11.7938H18.3953C18.2185 9.10189 17.5083 6.78272 16.5443 5.13597C15.9505 4.12163 15.3486 3.48703 14.8042 3.10902V11.7938H12.1125V3.10902C11.5681 3.48703 10.9662 4.12163 10.3724 5.13597C9.40838 6.78272 8.69812 9.10189 8.52141 11.7938H5.82497C5.99607 8.8499 6.73751 6.19263 7.85785 4.14896C4.75982 5.98973 2.69167 9.31176 2.69167 13.1042C2.69167 16.8966 4.75982 20.2186 7.85785 22.0594Z" fill="#212121"/>
</g>
<defs>
<filter id="filter0_b_55_58" x="36.1252" y="-1.41671" width="153.708" height="36.125" filterUnits="userSpaceOnUse" color-interpolation-filters="sRGB">
<feFlood flood-opacity="0" result="BackgroundImageFix"/>
<feGaussianBlur in="BackgroundImageFix" stdDeviation="1.41667"/>
<feComposite in2="SourceAlpha" operator="in" result="effect1_backgroundBlur_55_58"/>
<feBlend mode="normal" in="SourceGraphic" in2="effect1_backgroundBlur_55_58" result="shape"/>
</filter>
<clipPath id="clip0_55_58">
<rect width="148.042" height="30.4583" fill="white" transform="translate(38.9585 1.41663)"/>
</clipPath>
<clipPath id="clip1_55_58">
<rect width="26.9167" height="26.2083" fill="white"/>
</clipPath>
</defs>
</svg>
